<?xml version="1.0" standalone="no"?>
<!DOCTYPE svg PUBLIC "-//W3C//DTD SVG 20010904//EN"
 "http://www.w3.org/TR/2001/REC-SVG-20010904/DTD/svg10.dtd">
<svg version="1.0" xmlns="http://www.w3.org/2000/svg"
 width="500.000000pt" height="500.000000pt" viewBox="0 0 500.000000 500.000000"
 preserveAspectRatio="xMidYMid meet">
<metadata>
Created by potrace 1.14, written by Peter Selinger 2001-2017
</metadata>
<g transform="translate(0.000000,500.000000) scale(0.100000,-0.100000)"
fill="#000000" stroke="none">
<path d="M0 2500 l0 -2500 2500 0 2500 0 0 2500 0 2500 -2500 0 -2500 0 0
-2500z m2603 975 c215 -38 292 -81 452 -251 156 -166 170 -196 170 -364 -1
-106 -4 -134 -24 -182 -29 -75 -86 -150 -149 -198 -46 -34 -193 -120 -206
-120 -3 0 -12 13 -21 29 l-15 29 103 60 c111 64 177 127 208 196 41 93 44 250
6 336 l-15 35 -1 -68 c-2 -159 -60 -289 -165 -366 -56 -42 -207 -131 -222
-131 -9 0 -44 51 -44 63 0 3 46 31 103 62 182 103 242 194 241 370 0 72 -5
102 -25 150 -23 57 -28 62 -89 92 -102 50 -186 63 -447 70 l-233 6 0 -946 0
-947 498 -2 497 -3 3 -37 3 -38 -438 -2 c-241 -2 -466 -2 -500 -1 l-63 1 0
-64 0 -64 -40 0 -40 0 0 65 0 65 -60 -7 -60 -6 0 1092 0 1091 243 0 c172 0
267 -4 330 -15z"/>
<path d="M2110 2407 c0 -1000 0 -1007 20 -1007 20 0 20 7 20 980 l0 980 243 0
c133 0 271 -5 306 -10 80 -13 89 -7 19 13 -104 30 -176 38 -390 44 l-218 6 0
-1006z"/>
</g>
</svg>
